<svg width="188" height="48" viewBox="0 0 188 48" fill="none" xmlns="http://www.w3.org/2000/svg">
<path fill-rule="evenodd" clip-rule="evenodd" d="M3.13307 40.4587C1.40988 40.4587 1.6082e-07 39.0488 1.49105e-07 37.3256L7.46349e-08 26.372L7.88626 26.372L7.88626 26.3598L12.6263 26.3598C13.8482 26.3285 14.8821 25.2633 14.8821 24.01C14.8821 22.7255 13.8168 21.6602 12.5323 21.6602L6.26614 21.6602L6.26614 21.6622L4.26148e-08 21.6622L2.13006e-08 18.5272C9.58529e-09 16.804 1.40988 15.3941 3.13307 15.3941L12.5323 15.3941C14.9134 15.3941 16.9499 16.24 18.6104 17.9319C20.3023 19.5924 21.1482 21.6289 21.1482 24.01C21.1482 26.3598 20.3336 28.3963 18.6731 30.0569C17.0126 31.7174 15.0074 32.5947 12.6576 32.626L6.26614 32.626L6.26614 37.3256C6.26614 39.0488 4.85626 40.4587 3.13307 40.4587Z" fill="#02BC6B"/>
<path fill-rule="evenodd" clip-rule="evenodd" d="M25.0975 11.7578C28.5589 15.1199 30.3031 19.3073 30.3031 24.0672C30.3031 28.7473 28.6319 32.9307 25.2239 36.3034L20.3852 31.7508C22.5047 29.6533 23.545 27.128 23.545 24.0672C23.545 20.9832 22.4734 18.4619 20.3031 16.3538L25.0975 11.7578Z" fill="#02897A"/>
<path fill-rule="evenodd" clip-rule="evenodd" d="M32.5055 6C37.4911 10.9778 39.9999 17.1499 39.9999 24.2338C39.9999 31.2071 37.5922 37.3753 32.6884 42.3638L28.0186 37.8009C31.6715 34.085 33.4614 29.5781 33.4614 24.2338C33.4614 18.8358 31.6111 14.3328 27.8787 10.6062L32.5055 6Z" fill="#035B81"/>
<path fill-rule="evenodd" clip-rule="evenodd" d="M-1.14326e-05 32.6524L6.26613 32.6524L6.26613 37.326C6.26613 39.0492 4.85625 40.4591 3.13306 40.4591C1.40987 40.4591 -1.13891e-05 39.0492 -1.14009e-05 37.326L-1.14326e-05 32.6524Z" fill="#028E37"/>
<path d="M73.91 20.72C73.91 21.94 73.63 23.06 73.07 24.08C72.51 25.08 71.65 25.89 70.49 26.51C69.33 27.13 67.89 27.44 66.17 27.44H62.99V35H57.86V13.94H66.17C67.85 13.94 69.27 14.23 70.43 14.81C71.59 15.39 72.46 16.19 73.04 17.21C73.62 18.23 73.91 19.4 73.91 20.72ZM65.78 23.36C66.76 23.36 67.49 23.13 67.97 22.67C68.45 22.21 68.69 21.56 68.69 20.72C68.69 19.88 68.45 19.23 67.97 18.77C67.49 18.31 66.76 18.08 65.78 18.08H62.99V23.36H65.78ZM81.7107 21.05C82.3107 20.13 83.0607 19.41 83.9607 18.89C84.8607 18.35 85.8607 18.08 86.9607 18.08V23.51H85.5507C84.2707 23.51 83.3107 23.79 82.6707 24.35C82.0307 24.89 81.7107 25.85 81.7107 27.23V35H76.5807V18.26H81.7107V21.05ZM97.0327 35.24C95.3927 35.24 93.9127 34.89 92.5927 34.19C91.2927 33.49 90.2627 32.49 89.5027 31.19C88.7627 29.89 88.3927 28.37 88.3927 26.63C88.3927 24.91 88.7727 23.4 89.5327 22.1C90.2927 20.78 91.3327 19.77 92.6527 19.07C93.9727 18.37 95.4527 18.02 97.0927 18.02C98.7327 18.02 100.213 18.37 101.533 19.07C102.853 19.77 103.893 20.78 104.653 22.1C105.413 23.4 105.793 24.91 105.793 26.63C105.793 28.35 105.403 29.87 104.623 31.19C103.863 32.49 102.813 33.49 101.473 34.19C100.153 34.89 98.6727 35.24 97.0327 35.24ZM97.0327 30.8C98.0127 30.8 98.8427 30.44 99.5227 29.72C100.223 29 100.573 27.97 100.573 26.63C100.573 25.29 100.233 24.26 99.5527 23.54C98.8927 22.82 98.0727 22.46 97.0927 22.46C96.0927 22.46 95.2627 22.82 94.6027 23.54C93.9427 24.24 93.6127 25.27 93.6127 26.63C93.6127 27.97 93.9327 29 94.5727 29.72C95.2327 30.44 96.0527 30.8 97.0327 30.8ZM107.494 26.6C107.494 24.88 107.814 23.37 108.454 22.07C109.114 20.77 110.004 19.77 111.124 19.07C112.244 18.37 113.494 18.02 114.874 18.02C115.974 18.02 116.974 18.25 117.874 18.71C118.794 19.17 119.514 19.79 120.034 20.57V12.8H125.164V35H120.034V32.6C119.554 33.4 118.864 34.04 117.964 34.52C117.084 35 116.054 35.24 114.874 35.24C113.494 35.24 112.244 34.89 111.124 34.19C110.004 33.47 109.114 32.46 108.454 31.16C107.814 29.84 107.494 28.32 107.494 26.6ZM120.034 26.63C120.034 25.35 119.674 24.34 118.954 23.6C118.254 22.86 117.394 22.49 116.374 22.49C115.354 22.49 114.484 22.86 113.764 23.6C113.064 24.32 112.714 25.32 112.714 26.6C112.714 27.88 113.064 28.9 113.764 29.66C114.484 30.4 115.354 30.77 116.374 30.77C117.394 30.77 118.254 30.4 118.954 29.66C119.674 28.92 120.034 27.91 120.034 26.63ZM145.406 18.26V35H140.276V32.72C139.756 33.46 139.046 34.06 138.146 34.52C137.266 34.96 136.286 35.18 135.206 35.18C133.926 35.18 132.796 34.9 131.816 34.34C130.836 33.76 130.076 32.93 129.536 31.85C128.996 30.77 128.726 29.5 128.726 28.04V18.26H133.826V27.35C133.826 28.47 134.116 29.34 134.696 29.96C135.276 30.58 136.056 30.89 137.036 30.89C138.036 30.89 138.826 30.58 139.406 29.96C139.986 29.34 140.276 28.47 140.276 27.35V18.26H145.406ZM148.07 26.63C148.07 24.89 148.42 23.37 149.12 22.07C149.84 20.77 150.83 19.77 152.09 19.07C153.37 18.37 154.83 18.02 156.47 18.02C158.57 18.02 160.32 18.57 161.72 19.67C163.14 20.77 164.07 22.32 164.51 24.32H159.05C158.59 23.04 157.7 22.4 156.38 22.4C155.44 22.4 154.69 22.77 154.13 23.51C153.57 24.23 153.29 25.27 153.29 26.63C153.29 27.99 153.57 29.04 154.13 29.78C154.69 30.5 155.44 30.86 156.38 30.86C157.7 30.86 158.59 30.22 159.05 28.94H164.51C164.07 30.9 163.14 32.44 161.72 33.56C160.3 34.68 158.55 35.24 156.47 35.24C154.83 35.24 153.37 34.89 152.09 34.19C150.83 33.49 149.84 32.49 149.12 31.19C148.42 29.89 148.07 28.37 148.07 26.63ZM176.585 30.65V35H173.975C172.115 35 170.665 34.55 169.625 33.65C168.585 32.73 168.065 31.24 168.065 29.18V22.52H166.025V18.26H168.065V14.18H173.195V18.26H176.555V22.52H173.195V29.24C173.195 29.74 173.315 30.1 173.555 30.32C173.795 30.54 174.195 30.65 174.755 30.65H176.585Z" fill="#173A56"/>
</svg>
